<?xml version="1.0" encoding="utf-8"?>
<!-- Generator: Adobe Illustrator 21.0.0, SVG Export Plug-In . SVG Version: 6.00 Build 0)  -->
<svg version="1.1" id="Layer_1" xmlns="http://www.w3.org/2000/svg" xmlns:xlink="http://www.w3.org/1999/xlink" x="0px" y="0px"
	 viewBox="0 0 640 640" style="enable-background:new 0 0 640 640;" xml:space="preserve">
<style type="text/css">
	.st0{fill:url(#SVGID_1_);}
</style>
<linearGradient id="SVGID_1_" gradientUnits="userSpaceOnUse" x1="79.2943" y1="232.025" x2="560.7057" y2="713.4363">
	<stop  offset="0" style="stop-color:#99D31F"/>
	<stop  offset="1" style="stop-color:#00ADEF"/>
</linearGradient>
<path class="st0" d="M565.7,541.4c-16-24.9-44-41.4-75.7-41.4H330v-20h300c5.5,0,10-4.5,10-10c0-5.5-4.5-10-10-10H330v-60.4
	c36.4-2.6,160-20.2,160-139.6C490,120,320,0,320,0S150,120,150,260c0,119.4,123.6,137,160,139.6V460H10c-5.5,0-10,4.5-10,10
	c0,5.5,4.5,10,10,10h300v40H150c-21.6,0-41.5,7.7-57,20.4c-0.9-0.3-1.9-0.4-3-0.4c-49.6,0-90,40.4-90,90c0,5.5,4.5,10,10,10
	c5.5,0,10-4.5,10-10c0-33.1,23.1-60.9,54-68.1c-8.9,13.9-14,30.4-14,48.1c0,5.5,4.5,10,10,10s10-4.5,10-10c0-3.4,0.3-6.7,0.7-10
	c16.2,0.4,29.3,13.7,29.3,30c0,5.5,4.5,10,10,10c5.5,0,10-4.5,10-10c0-25.3-19-46.3-43.4-49.6C97.7,556.6,122,540,150,540h20
	c-6.3,8.4-10,18.8-10,30c0,5.5,4.5,10,10,10c5.5,0,10-4.5,10-10c0-16.5,13.5-30,30-30h100v40c-27.6,0-50,22.4-50,50
	c0,5.5,4.5,10,10,10s10-4.5,10-10c0-16.5,13.5-30,30-30v30c0,5.5,4.5,10,10,10s10-4.5,10-10v-69.3c33.9,4.9,60,34.1,60,69.3
	c0,5.5,4.5,10,10,10s10-4.5,10-10c0-46.2-35.1-84.5-80-89.4V520h160c19.3,0,36.9,7.9,49.6,20.6c-44.7,5.2-79.6,43.3-79.6,89.4
	c0,5.5,4.5,10,10,10s10-4.5,10-10c0-10.9,2.5-21.2,7-30.5c1,0.3,2,0.5,3,0.5c16.5,0,30,13.5,30,30c0,5.5,4.5,10,10,10s10-4.5,10-10
	c0-24.1-17.2-44.3-39.9-49c12.7-13,30.4-21,49.9-21c1.1,0,2.2,0,3.3,0.1c4.3,9.1,6.7,19.2,6.7,29.9c0,5.5,4.5,10,10,10s10-4.5,10-10
	c0-8.6-1.2-16.9-3.5-24.8C602,575.7,620,600.8,620,630c0,5.5,4.5,10,10,10s10-4.5,10-10C640,585.7,607.9,548.8,565.7,541.4z
	 M448.2,327.9c-11.8,14.8-28.6,26.8-49.9,35.7c-26.8,11.2-54.1,14.7-68.3,15.9V300c0,0,0,0,0-0.1v-74.2l111.1-64.8
	c1.6,2.8,3.1,5.7,4.6,8.5c16.2,31.4,24.3,61.8,24.3,90.5C470,287,462.7,309.9,448.2,327.9z M390.1,90.8c15.8,17.7,29.4,35.4,40.7,53
	L330,202.6V33.2C345.7,46.1,367.9,66,390.1,90.8z M249.4,91.4c22.3-25,44.8-45.2,60.6-58.3v250.1l-132.9-70.9
	c4-13.9,9.7-28.2,17.1-42.6C207.4,144.1,226,117.7,249.4,91.4z M241.7,363.6c-21.3-8.9-38.1-20.9-49.9-35.7
	C177.3,309.9,170,287,170,260c0-9,0.8-18.1,2.4-27.4L310,306v73.5C295.8,378.4,268.4,374.8,241.7,363.6z"/>
</svg>
