<?xml version="1.0" encoding="utf-8"?>
<!-- Generator: Adobe Illustrator 21.0.0, SVG Export Plug-In . SVG Version: 6.00 Build 0)  -->
<svg version="1.1" id="Layer_1" xmlns="http://www.w3.org/2000/svg" xmlns:xlink="http://www.w3.org/1999/xlink" x="0px" y="0px"
	 viewBox="0 0 640 640" style="enable-background:new 0 0 640 640;" xml:space="preserve">
<style type="text/css">
	.st0{fill:url(#SVGID_1_);}
</style>
<linearGradient id="SVGID_1_" gradientUnits="userSpaceOnUse" x1="-21.9279" y1="25.6457" x2="613.2842" y2="660.8577">
	<stop  offset="0" style="stop-color:#99D31F"/>
	<stop  offset="1" style="stop-color:#00ADEF"/>
</linearGradient>
<path class="st0" d="M562.4,511.7c7.9,5.2,17.4,8.3,27.6,8.3c27.6,0,50-22.4,50-50c0-27.6-22.4-50-50-50c-27.6,0-50,22.4-50,50
	c0,10.2,3.1,19.7,8.3,27.6L520,525.9V430c0,0,0,0,0,0V314.1l42.4-42.4c7.9,5.2,17.4,8.3,27.6,8.3c27.6,0,50-22.4,50-50
	c0-27.6-22.4-50-50-50c-27.6,0-50,22.4-50,50c0,10.2,3.1,19.7,8.3,27.6L520,285.9V139.3c33.9-4.9,60-34,60-69.3
	c0-38.7-31.3-70-70-70c-38.7,0-70,31.3-70,70c0,35.3,26.1,64.4,60,69.3V310c0,0,0,0,0,0v95.9l-28.3-28.3c5.2-7.9,8.3-17.4,8.3-27.6
	c0-8.8-2.3-17-6.2-24.2c0,0,0,0,0,0c10-17.5,16.2-39.1,16.2-65.8C490,120,320,0,320,0S150,120,150,260c0,38.2,12.7,66,31.1,86.2
	c0,0,0,0,0,0c-7.4,13-3,25.8,2.1,34.3c-0.4,0.3-0.9,0.7-1.3,1.1L140,423.5V150c0-1.1-0.2-2.2-0.5-3.1c2.4-2.2,3.8-3.6,3.8-3.6
	s57.9-55.2,7.1-106C118.9,5.7,67.2,0,33.9,0c-19,0-32,1.9-32,1.9s-14.1,99,35.4,148.6c15.5,15.5,31.4,20.9,46,20.9
	c13.9,0,26.6-4.9,36.7-10.5v164.8l-42.2-42.2c6.8-9.9,14.7-28.2-2.6-45.5c-15.8-15.8-41.6-18.6-58.3-18.6c-9.5,0-16,0.9-16,0.9
	s-7.1,49.5,17.7,74.3c7.7,7.7,15.7,10.4,23,10.4c8.7,0,16.5-3.8,21.9-7.5l56.4,56.4v71.7l-42.2-42.2c6.8-9.9,14.7-28.2-2.6-45.5
	c-15.8-15.8-41.6-18.6-58.3-18.6c-9.5,0-16,0.9-16,0.9s-7.1,49.5,17.7,74.3c7.7,7.7,15.7,10.4,23,10.4c8.7,0,16.5-3.8,21.9-7.5
	l56.4,56.4V620H10c-5.5,0-10,4.5-10,10s4.5,10,10,10h620c5.5,0,10-4.5,10-10s-4.5-10-10-10H520v-65.9L562.4,511.7z M590,440
	c16.5,0,30,13.5,30,30s-13.5,30-30,30s-30-13.5-30-30S573.5,440,590,440z M590,200c16.5,0,30,13.5,30,30s-13.5,30-30,30
	s-30-13.5-30-30S573.5,200,590,200z M51.4,136.3c-21.2-21.2-28.2-55-30.4-79.6c-1.3-14.1-1.1-26.9-0.6-36.3c4-0.2,8.5-0.3,13.5-0.3
	c19.8,0,37.9,2.1,54,6.2c20.7,5.3,36.9,13.8,48.4,25.2c10.2,10.2,15.1,20.7,15,32.1c-0.2,23.4-20.6,44.1-21.8,45.3l-0.2,0.2
	l-0.4,0.4c-0.9,0.9-21.9,21.8-45.6,21.8C71.9,151.3,61.5,146.4,51.4,136.3z M57.6,276.5l-0.5,0.5c-1.9,2-9.4,7.8-15.5,7.8
	c-1.8,0-4.8-0.5-8.8-4.6c-8.4-8.4-11.3-22.7-12.3-33.2c-0.3-2.7-0.4-5.3-0.5-7.8c18.5,0.5,33.3,5,41,12.7c4.6,4.6,4.6,7.7,4.6,8.9
	c0,5.8-5.2,12.9-7.8,15.6L57.6,276.5z M460,70c0-27.6,22.4-50,50-50s50,22.4,50,50c0,27.6-22.4,50-50,50S460,97.6,460,70z M460,350
	c0,16.5-13.5,30-30,30s-30-13.5-30-30s13.5-30,30-30S460,333.5,460,350z M459.6,309.7c-8.3-6.1-18.5-9.7-29.6-9.7
	c-27.6,0-50,22.4-50,50c0,6.7,1.3,13.1,3.7,19c-21.7,7-42.1,9.6-53.7,10.5V300c0,0,0,0,0-0.1v-74.2l111.1-64.8
	c1.6,2.8,3.1,5.7,4.6,8.5c16.2,31.4,24.3,61.8,24.3,90.5C470,278.6,466.5,295.3,459.6,309.7z M390.1,90.8
	c15.8,17.7,29.4,35.4,40.7,53L330,202.6V33.2C345.7,46.1,367.9,66,390.1,90.8z M249.4,91.4c22.3-25,44.8-45.2,60.6-58.3v250.1
	l-132.9-70.9c4-13.9,9.7-28.2,17.1-42.6C207.4,144.1,226,117.7,249.4,91.4z M170,260c0-9,0.8-18.1,2.4-27.4L310,306v73.5
	c-11.3-0.9-30.8-3.3-51.7-9.8l0,0c7.3-23.7,3.6-49.5,3.6-49.5s-6.5-0.9-16-0.9c-14.3,0-35.3,2.1-51,12.7c0,0,0.1-0.1,0.1-0.1
	c-1.1-1.3-2.2-2.5-3.2-3.8C177.3,309.9,170,287,170,260z M197.2,360.8c0-1.2,0-4.3,4.6-8.9c7.7-7.7,22.5-12.3,41-12.7
	c-0.1,2.5-0.2,5.1-0.5,7.8c-1,10.5-3.9,24.9-12.3,33.2c-4.6,4.6-7.7,4.6-8.8,4.6c-5.8,0-12.9-5.2-15.5-7.8l0-0.1l-0.6-0.5
	C202.4,373.8,197.2,366.7,197.2,360.8z M57.6,376.5l-0.5,0.5c-1.9,2-9.4,7.8-15.5,7.8c-1.8,0-4.8-0.5-8.8-4.6
	c-8.4-8.4-11.3-22.7-12.3-33.2c-0.3-2.7-0.4-5.3-0.5-7.8c18.5,0.5,33.3,5,41,12.7c4.6,4.6,4.6,7.7,4.6,8.9c0,5.8-5.2,12.9-7.8,15.6
	L57.6,376.5z M140,620v-68.2l55.8-55.8c5.5,3.8,13.5,7.9,22.5,7.9c7.3,0,15.2-2.7,23-10.4c24.8-24.8,17.7-74.3,17.7-74.3
	s-6.5-0.9-16-0.9c-16.7,0-42.5,2.9-58.3,18.6c-16.9,16.9-9.7,34.8-3,44.9L140,523.5v-71.7l56.1-56.1c0.1-0.1,0.2-0.2,0.3-0.4
	c5.4,4.1,14.4,9.5,24.8,9.5c7.3,0,15.2-2.7,23-10.4c2-2,3.8-4.2,5.4-6.5l0,0c24.7,8.1,47.8,10.8,60.4,11.7V620H140z M194.4,459.8
	c0-1.2,0-4.3,4.6-8.9c7.7-7.7,22.5-12.3,41-12.7c-0.1,2.5-0.2,5.1-0.5,7.8c-1,10.5-3.9,24.9-12.3,33.2c-4.6,4.6-7.7,4.6-8.8,4.6
	c-5.8,0-12.9-5.2-15.5-7.8l0-0.1l-0.6-0.5C199.6,472.8,194.4,465.7,194.4,459.8z M330,620V399.5c13.5-1,38.8-4,65.5-13.4l0,0
	c9,8.6,21.1,13.9,34.5,13.9c10.2,0,19.7-3.1,27.6-8.3l42.4,42.4V550c0,0,0,0,0,0v70H330z"/>
</svg>
