<?xml version="1.0" encoding="utf-8"?>
<!-- Generator: Adobe Illustrator 21.0.0, SVG Export Plug-In . SVG Version: 6.00 Build 0)  -->
<svg version="1.1" id="Layer_1" xmlns="http://www.w3.org/2000/svg" xmlns:xlink="http://www.w3.org/1999/xlink" x="0px" y="0px"
	 viewBox="0 0 640 640" style="enable-background:new 0 0 640 640;" xml:space="preserve">
<style type="text/css">
	.st0{fill:url(#SVGID_1_);}
</style>
<linearGradient id="SVGID_1_" gradientUnits="userSpaceOnUse" x1="78.2219" y1="228.8077" x2="561.7781" y2="712.364">
	<stop  offset="0" style="stop-color:#99D31F"/>
	<stop  offset="1" style="stop-color:#00ADEF"/>
</linearGradient>
<path class="st0" d="M630,620H491.6l56.8-280H568c6.6,0,12-5.4,12-12v-76c0-6.6-5.4-12-12-12H330v-40.7c22.5-2.5,75-14.3,75-69.3
	c0-70-85-130-85-130s-85,60-85,130c0,55,52.5,66.8,75,69.3V240H72c-6.6,0-12,5.4-12,12v76c0,6.6,5.4,12,12,12h19.6l56.8,280H10
	c-5.5,0-10,4.5-10,10s4.5,10,10,10h152h316h152c5.5,0,10-4.5,10-10S635.5,620,630,620z M355.7,172.4c-9.3,4-18.8,5.9-25.7,6.8v-64
	l42-29.4c7.6,13.7,13,28.8,13,44.2C385,150.4,375.7,163.9,355.7,172.4z M348.1,52.7c4.3,4.8,8.8,10.3,13.1,16.3L330,90.8V34.3
	C335.7,39.5,341.9,45.7,348.1,52.7z M291.9,52.7c6.2-7,12.5-13.2,18.1-18.4v97.8l-49.4-30.4C267.7,82.7,280.5,65.5,291.9,52.7z
	 M285.1,172.8c-20.5-8.5-30.1-22-30.1-42.8c0-2.7,0.2-5.3,0.5-8l54.5,33.6v23.6C303.3,178.3,294.2,176.5,285.1,172.8z M80,260h480
	v60h-22H102H80V260z M168.8,620L112,340H528l-56.8,280H168.8z"/>
</svg>
