<?xml version="1.0" encoding="utf-8"?>
<!-- Generator: Adobe Illustrator 21.0.0, SVG Export Plug-In . SVG Version: 6.00 Build 0)  -->
<svg version="1.1" id="Layer_1" xmlns="http://www.w3.org/2000/svg" xmlns:xlink="http://www.w3.org/1999/xlink" x="0px" y="0px"
	 viewBox="0 0 640 640" style="enable-background:new 0 0 640 640;" xml:space="preserve">
<style type="text/css">
	.st0{fill:url(#SVGID_1_);}
</style>
<g>
	<g>
		<linearGradient id="SVGID_1_" gradientUnits="userSpaceOnUse" x1="17.4897" y1="117.8228" x2="586.9044" y2="687.2375">
			<stop  offset="0" style="stop-color:#99D31F"/>
			<stop  offset="1" style="stop-color:#00ADEF"/>
		</linearGradient>
		<path class="st0" d="M430,425c0,35,42.5,35,42.5,35s42.5,0,42.5-35s-42.5-65-42.5-65S430,390,430,425z M478.8,392.7
			c13.4,14.9,16.2,25.8,16.2,32.3c0,5.2-1.3,8.8-8.2,11.8c-5.5,2.4-12,3.1-14.3,3.2c-2.3-0.1-8.8-0.7-14.3-3.2
			c-6.9-3-8.2-6.6-8.2-11.8c0-6.4,2.7-17.1,15.7-31.7c2.3-2.6,4.6-5,6.8-7.1C474.5,388.1,476.7,390.3,478.8,392.7z M630,620H330
			v-35.7c22.5-2.5,75-14.3,75-69.3c0-70-85-130-85-130s-85,60-85,130c0,55,52.5,66.8,75,69.3V620H10c-5.5,0-10,4.5-10,10
			s4.5,10,10,10h620c5.5,0,10-4.5,10-10S635.5,620,630,620z M330,419.3c5.7,5.2,11.9,11.4,18.1,18.4c4.3,4.8,8.8,10.3,13.1,16.3
			L330,475.8V419.3z M330,500.2l42-29.4c7.6,13.7,13,28.8,13,44.2c0,20.4-9.3,33.9-29.3,42.4c-9.3,4-18.8,5.9-25.7,6.8V500.2z
			 M310,564.2c-6.7-0.9-15.8-2.7-24.9-6.4c-20.5-8.5-30.1-22-30.1-42.8c0-2.7,0.2-5.3,0.5-8l54.5,33.6V564.2z M310,517.1l-49.4-30.4
			c7.1-19,20-36.2,31.3-49c6.2-7,12.5-13.2,18.1-18.4V517.1z M230.6,80c5.5,0,10-4.5,10-10V10c0-5.5-4.5-10-10-10
			c-5.5,0-10,4.5-10,10v60C220.6,75.5,225.1,80,230.6,80z M220.6,390v60c0,5.5,4.5,10,10,10c5.5,0,10-4.5,10-10v-60
			c0-5.5-4.5-10-10-10C225.1,380,220.6,384.5,220.6,390z M380.6,240c0,5.5,4.5,10,10,10h60c5.5,0,10-4.5,10-10c0-5.5-4.5-10-10-10
			h-60C385.1,230,380.6,234.5,380.6,240z M10.6,250h60c5.5,0,10-4.5,10-10c0-5.5-4.5-10-10-10h-60c-5.5,0-10,4.5-10,10
			C0.6,245.5,5.1,250,10.6,250z M343.7,126.9c2.6,0,5.1-1,7.1-2.9l42.4-42.4c3.9-3.9,3.9-10.2,0-14.1c-3.9-3.9-10.2-3.9-14.1,0
			l-42.4,42.4c-3.9,3.9-3.9,10.2,0,14.1C338.6,125.9,341.2,126.9,343.7,126.9z M110.4,336.1l-42.4,42.4c-3.9,3.9-3.9,10.2,0,14.1
			c2,2,4.5,2.9,7.1,2.9c2.6,0,5.1-1,7.1-2.9l42.4-42.4c3.9-3.9,3.9-10.2,0-14.1C120.6,332.2,114.3,332.2,110.4,336.1z M329.6,343.1
			c-3.9,3.9-3.9,10.2,0,14.1l42.4,42.4c2,2,4.5,2.9,7.1,2.9c2.6,0,5.1-1,7.1-2.9c3.9-3.9,3.9-10.2,0-14.1l-42.4-42.4
			C339.8,339.2,333.5,339.2,329.6,343.1z M103.3,131c2,2,4.5,2.9,7.1,2.9s5.1-1,7.1-2.9c3.9-3.9,3.9-10.2,0-14.1L75,74.4
			c-3.9-3.9-10.2-3.9-14.1,0c-3.9,3.9-3.9,10.2,0,14.1L103.3,131z M230,360c31.6,0,60.5-11.3,83.1-30c0,0,0,0,0,0h238.5
			c48.8,0,88.4-39.2,88.4-87.5S600.4,155,551.6,155c-0.7,0-1.4,0-2.1,0.1C537.5,84.1,475.1,30,400,30c-56.2,0-105.2,30.2-131.4,75.1
			c-0.7,0-1.4,0.1-2,0.1c0,0,0,0,0,0c-11.6-3.4-23.9-5.2-36.6-5.2c-71.8,0-130,58.2-130,130S158.2,360,230,360z M333.2,68
			c20.2-11.8,43.3-18,66.8-18c31.4,0,61.7,11.1,85.5,31.2c23.5,19.9,39.2,47.3,44.3,77.2l2.9,17l17.3-0.4c0.3,0,0.7,0,1,0
			c0.2,0,0.4,0,0.7,0c37.7,0,68.4,30.3,68.4,67.5c0,37.2-30.7,67.5-68.4,67.5H332.5c17.2-22.1,27.5-49.8,27.5-80
			c0-51.3-29.7-95.7-72.9-116.8C298.4,94.6,314.3,79,333.2,68z M152.2,152.2C173,131.4,200.6,120,230,120c29.4,0,57,11.4,77.8,32.2
			C328.6,173,340,200.6,340,230c0,29.4-11.4,57-32.2,77.8C287,328.6,259.4,340,230,340c-29.4,0-57-11.4-77.8-32.2
			C131.4,287,120,259.4,120,230C120,200.6,131.4,173,152.2,152.2z"/>
	</g>
</g>
</svg>
