<?xml version="1.0" encoding="utf-8"?>
<!-- Generator: Adobe Illustrator 20.1.0, SVG Export Plug-In . SVG Version: 6.00 Build 0)  -->
<svg version="1.1" id="Layer_1" xmlns="http://www.w3.org/2000/svg" xmlns:xlink="http://www.w3.org/1999/xlink" x="0px" y="0px"
	 viewBox="0 0 640 640" style="enable-background:new 0 0 640 640;" xml:space="preserve">
<style type="text/css">
	.st0{fill:url(#SVGID_1_);}
</style>
<g>
	<g>
		<linearGradient id="SVGID_1_" gradientUnits="userSpaceOnUse" x1="-26.8049" y1="26.8049" x2="586.8049" y2="640.4146">
			<stop  offset="0" style="stop-color:#99D31F"/>
			<stop  offset="1" style="stop-color:#00ADEF"/>
		</linearGradient>
		<path class="st0" d="M387.6,448.4c0.3-2.4,0.4-4.9,0.4-7.4c0-35.8-29.2-65-65-65s-65,29.2-65,65c0,1.9,0.1,3.8,0.3,5.6l-51.3,51.3
			c-2.9,2.9-3.7,7.2-2.2,10.9c1.5,3.7,5.2,6.2,9.2,6.2h35v35c0,4,2.4,7.7,6.2,9.2c1.2,0.5,2.5,0.8,3.8,0.8c2.6,0,5.2-1,7.1-2.9
			l51.3-51.3c1.8,0.2,3.7,0.3,5.6,0.3c1.3,0,2.5,0,3.7-0.1l51.2,51.2c1.9,1.9,4.5,2.9,7.1,2.9c1.3,0,2.6-0.2,3.8-0.8
			c3.7-1.5,6.2-5.2,6.2-9.2v-35h35c4,0,7.7-2.4,9.2-6.2c1.5-3.7,0.7-8-2.2-10.9L387.6,448.4z M269,525.9V505c0-5.5-4.5-10-10-10
			h-20.9l26.1-26.1c6.4,13.5,17.4,24.4,30.9,30.9L269,525.9z M323,486c-24.8,0-45-20.2-45-45c0-24.8,20.2-45,45-45s45,20.2,45,45
			C368,465.8,347.8,486,323,486z M385,495c-5.5,0-10,4.5-10,10v20.9l-25.5-25.5c13.7-6.1,24.8-16.8,31.6-30.1l24.8,24.8H385z
			 M322,424c-9.9,0-18,8.1-18,18c0,9.9,8.1,18,18,18s18-8.1,18-18C340,432.1,331.9,424,322,424z M480,200V0H0v550
			c0,49.6,40.4,90,90,90h460c49.6,0,90-40.4,90-90V200H480z M90,620c-38.6,0-70-31.4-70-70V20h440v530c0,28.2,13.1,53.5,33.5,70H90z
			 M620,550c0,38.6-31.4,70-70,70s-70-31.4-70-70V220h140V550z M190,140H70c-5.5,0-10,4.5-10,10s4.5,10,10,10h120
			c5.5,0,10-4.5,10-10S195.5,140,190,140z M190,180H70c-5.5,0-10,4.5-10,10s4.5,10,10,10h120c5.5,0,10-4.5,10-10S195.5,180,190,180z
			 M190,220H70c-5.5,0-10,4.5-10,10c0,5.5,4.5,10,10,10h120c5.5,0,10-4.5,10-10C200,224.5,195.5,220,190,220z M190,260H70
			c-5.5,0-10,4.5-10,10c0,5.5,4.5,10,10,10h120c5.5,0,10-4.5,10-10C200,264.5,195.5,260,190,260z M190,300H70c-5.5,0-10,4.5-10,10
			c0,5.5,4.5,10,10,10h120c5.5,0,10-4.5,10-10C200,304.5,195.5,300,190,300z M312,259.3V300h-60c-5.5,0-10,4.5-10,10
			c0,5.5,4.5,10,10,10h140c5.5,0,10-4.5,10-10c0-5.5-4.5-10-10-10h-60v-40.7c22.5-2.5,75-14.3,75-69.3c0-70-85-130-85-130
			s-85,60-85,130C237,245,289.5,256.8,312,259.3z M332,94.3c5.7,5.2,11.9,11.4,18.1,18.4c4.3,4.8,8.8,10.3,13.1,16.2L332,150.8V94.3
			z M332,175.2l42-29.4c7.6,13.7,13,28.8,13,44.2c0,20.4-9.3,33.9-29.3,42.4c-9.3,4-18.8,5.9-25.7,6.8V175.2z M293.9,112.7
			c6.2-7,12.5-13.2,18.1-18.4v97.8l-49.4-30.4C269.7,142.7,282.5,125.5,293.9,112.7z M257.5,182l54.5,33.6v23.6
			c-6.7-0.9-15.8-2.7-24.9-6.4c-20.5-8.5-30.1-22-30.1-42.8C257,187.3,257.2,184.7,257.5,182z"/>
	</g>
</g>
</svg>
