<?xml version="1.0" encoding="utf-8"?>
<!-- Generator: Adobe Illustrator 21.0.0, SVG Export Plug-In . SVG Version: 6.00 Build 0)  -->
<svg version="1.1" id="Layer_1" xmlns="http://www.w3.org/2000/svg" xmlns:xlink="http://www.w3.org/1999/xlink" x="0px" y="0px"
	 viewBox="0 0 640 640" style="enable-background:new 0 0 640 640;" xml:space="preserve">
<style type="text/css">
	.st0{fill:url(#SVGID_1_);}
</style>
<g>
	<g>
		<linearGradient id="SVGID_1_" gradientUnits="userSpaceOnUse" x1="60.6558" y1="176.1093" x2="579.3441" y2="694.7977">
			<stop  offset="0" style="stop-color:#99D31F"/>
			<stop  offset="1" style="stop-color:#00ADEF"/>
		</linearGradient>
		<path class="st0" d="M630,620H330v-35.7c22.5-2.5,75-14.3,75-69.3c0-70-85-130-85-130s-85,60-85,130c0,55,52.5,66.8,75,69.3V620
			H10c-5.5,0-10,4.5-10,10s4.5,10,10,10h620c5.5,0,10-4.5,10-10S635.5,620,630,620z M330,419.3c5.7,5.2,11.9,11.4,18.1,18.4
			c4.3,4.8,8.8,10.3,13.1,16.3L330,475.8V419.3z M330,500.2l42-29.4c7.6,13.7,13,28.8,13,44.2c0,20.4-9.3,33.9-29.3,42.4
			c-9.3,4-18.8,5.9-25.7,6.8V500.2z M310,564.2c-6.7-0.9-15.8-2.7-24.9-6.4c-20.5-8.5-30.1-22-30.1-42.8c0-2.7,0.2-5.3,0.5-8
			l54.5,33.6V564.2z M310,517.1l-49.4-30.4c7.1-19,20-36.2,31.3-49c6.2-7,12.5-13.2,18.1-18.4V517.1z M310.9,318.5v30
			c0,5.5,4.5,10,10,10c5.5,0,10-4.5,10-10v-30c0-5.5-4.5-10-10-10C315.4,308.5,310.9,313,310.9,318.5z M215.4,311.4l-32.4,32.4
			c-3.9,3.9-3.9,10.2,0,14.1c2,2,4.5,2.9,7.1,2.9s5.1-1,7.1-2.9l32.4-32.4c3.9-3.9,3.9-10.2,0-14.1
			C225.6,307.5,219.3,307.5,215.4,311.4z M412.3,311.4c-3.9,3.9-3.9,10.2,0,14.1l32.4,32.4c2,2,4.5,2.9,7.1,2.9s5.1-1,7.1-2.9
			c3.9-3.9,3.9-10.2,0-14.1l-32.4-32.4C422.6,307.5,416.2,307.5,412.3,311.4z M490,280c0-5.5-4.5-10-10-10H160c-5.5,0-10,4.5-10,10
			c0,5.5,4.5,10,10,10h320C485.5,290,490,285.5,490,280z M200,120c-8.3,0-15,6.7-15,15c0,8.3,6.7,15,15,15s15-6.7,15-15
			C215,126.7,208.3,120,200,120z M260,120c-8.3,0-15,6.7-15,15c0,8.3,6.7,15,15,15c8.3,0,15-6.7,15-15C275,126.7,268.3,120,260,120z
			 M320,120c-8.3,0-15,6.7-15,15c0,8.3,6.7,15,15,15s15-6.7,15-15C335,126.7,328.3,120,320,120z M380,120c-8.3,0-15,6.7-15,15
			c0,8.3,6.7,15,15,15s15-6.7,15-15C395,126.7,388.3,120,380,120z M440,120c-8.3,0-15,6.7-15,15c0,8.3,6.7,15,15,15s15-6.7,15-15
			C455,126.7,448.3,120,440,120z M83.3,250h473.3c22.1,0,40-17.9,40-40c0-22.1-17.9-40-40-40H490C490,76.3,413.7,0,320,0
			S150,76.3,150,170H83.3c-22.1,0-40,17.9-40,40C43.3,232.1,61.2,250,83.3,250z M320,20c82.7,0,150,67.3,150,150H170
			C170,87.3,237.3,20,320,20z M83.3,190h473.3c11,0,20,9,20,20c0,11-9,20-20,20H83.3c-11,0-20-9-20-20C63.3,199,72.3,190,83.3,190z"
			/>
	</g>
</g>
</svg>
